<svg width="200" height="60" viewBox="0 0 200 60" fill="none" xmlns="http://www.w3.org/2000/svg">
  <!-- Green arc -->
  <path d="M15 40 Q35 10 55 40" stroke="#32CD32" stroke-width="5" fill="none" stroke-linecap="round"/>
  
  <!-- Mountains -->
  <path d="M20 40 L30 25 L40 40 Z" fill="#4A4A4A"/>
  <path d="M35 40 L45 20 L55 40 Z" fill="#4A4A4A"/>
  
  <!-- Houses with triangular roofs -->
  <path d="M18 40 L22 40 L22 35 L18 35 Z" fill="#4A4A4A"/>
  <path d="M18 35 L22 35 L20 32 Z" fill="#4A4A4A"/>
  <rect x="19" y="36" width="1" height="1" fill="white"/>
  <rect x="21" y="36" width="1" height="1" fill="white"/>
  
  <path d="M24 40 L28 40 L28 35 L24 35 Z" fill="#4A4A4A"/>
  <path d="M24 35 L28 35 L26 32 Z" fill="#4A4A4A"/>
  <rect x="25" y="36" width="1" height="1" fill="white"/>
  <rect x="27" y="36" width="1" height="1" fill="white"/>
  
  <path d="M30 40 L34 40 L34 35 L30 35 Z" fill="#4A4A4A"/>
  <path d="M30 35 L34 35 L32 32 Z" fill="#4A4A4A"/>
  <rect x="31" y="36" width="1" height="1" fill="white"/>
  <rect x="33" y="36" width="1" height="1" fill="white"/>
  
  <path d="M36 40 L40 40 L40 35 L36 35 Z" fill="#4A4A4A"/>
  <path d="M36 35 L40 35 L38 32 Z" fill="#4A4A4A"/>
  <rect x="37" y="36" width="1" height="1" fill="white"/>
  <rect x="39" y="36" width="1" height="1" fill="white"/>
  
  <path d="M42 40 L46 40 L46 35 L42 35 Z" fill="#4A4A4A"/>
  <path d="M42 35 L46 35 L44 32 Z" fill="#4A4A4A"/>
  <rect x="43" y="36" width="1" height="1" fill="white"/>
  <rect x="45" y="36" width="1" height="1" fill="white"/>
  
  <!-- Patrón text in cursive -->
  <text x="70" y="35" font-family="'Brush Script MT', cursive" font-size="28" font-weight="700" fill="#32CD32">
    Patrón
  </text>
  
  <!-- REAL ESTATE text -->
  <text x="70" y="48" font-family="Arial, sans-serif" font-size="12" font-weight="600" fill="#4A4A4A" letter-spacing="1">
    REAL ESTATE
  </text>
  
  <!-- RIGHT FOR YOU with lines -->
  <line x1="60" y1="55" x2="70" y2="55" stroke="#666666" stroke-width="1"/>
  <text x="80" y="58" font-family="Arial, sans-serif" font-size="8" font-weight="500" fill="#666666" letter-spacing="0.5">
    RIGHT FOR YOU
  </text>
  <line x1="90" y1="55" x2="100" y2="55" stroke="#666666" stroke-width="1"/>
</svg>
