<svg width="700" height="200" viewBox="0 0 700 200" fill="none" xmlns="http://www.w3.org/2000/svg">
  <!-- Green arc -->
  <path d="M50 120 Q150 30 250 120" stroke="#32CD32" stroke-width="12" fill="none" stroke-linecap="round"/>
  
  <!-- Mountains -->
  <path d="M60 120 L90 75 L120 120 Z" fill="#4A4A4A"/>
  <path d="M105 120 L135 60 L165 120 Z" fill="#4A4A4A"/>
  
  <!-- Houses with triangular roofs -->
  <path d="M55 120 L65 120 L65 105 L55 105 Z" fill="#4A4A4A"/>
  <path d="M55 105 L65 105 L60 96 Z" fill="#4A4A4A"/>
  <rect x="57" y="108" width="2" height="2" fill="white"/>
  <rect x="61" y="108" width="2" height="2" fill="white"/>
  
  <path d="M70 120 L80 120 L80 105 L70 105 Z" fill="#4A4A4A"/>
  <path d="M70 105 L80 105 L75 96 Z" fill="#4A4A4A"/>
  <rect x="72" y="108" width="2" height="2" fill="white"/>
  <rect x="76" y="108" width="2" height="2" fill="white"/>
  
  <path d="M85 120 L95 120 L95 105 L85 105 Z" fill="#4A4A4A"/>
  <path d="M85 105 L95 105 L90 96 Z" fill="#4A4A4A"/>
  <rect x="87" y="108" width="2" height="2" fill="white"/>
  <rect x="91" y="108" width="2" height="2" fill="white"/>
  
  <path d="M100 120 L110 120 L110 105 L100 105 Z" fill="#4A4A4A"/>
  <path d="M100 105 L110 105 L105 96 Z" fill="#4A4A4A"/>
  <rect x="102" y="108" width="2" height="2" fill="white"/>
  <rect x="106" y="108" width="2" height="2" fill="white"/>
  
  <path d="M115 120 L125 120 L125 105 L115 105 Z" fill="#4A4A4A"/>
  <path d="M115 105 L125 105 L120 96 Z" fill="#4A4A4A"/>
  <rect x="117" y="108" width="2" height="2" fill="white"/>
  <rect x="121" y="108" width="2" height="2" fill="white"/>
  
  <path d="M130 120 L140 120 L140 105 L130 105 Z" fill="#4A4A4A"/>
  <path d="M130 105 L140 105 L135 96 Z" fill="#4A4A4A"/>
  <rect x="132" y="108" width="2" height="2" fill="white"/>
  <rect x="136" y="108" width="2" height="2" fill="white"/>
  
  <path d="M145 120 L155 120 L155 105 L145 105 Z" fill="#4A4A4A"/>
  <path d="M145 105 L155 105 L150 96 Z" fill="#4A4A4A"/>
  <rect x="147" y="108" width="2" height="2" fill="white"/>
  <rect x="151" y="108" width="2" height="2" fill="white"/>
  
  <path d="M160 120 L170 120 L170 105 L160 105 Z" fill="#4A4A4A"/>
  <path d="M160 105 L170 105 L165 96 Z" fill="#4A4A4A"/>
  <rect x="162" y="108" width="2" height="2" fill="white"/>
  <rect x="166" y="108" width="2" height="2" fill="white"/>
  
  <path d="M175 120 L185 120 L185 105 L175 105 Z" fill="#4A4A4A"/>
  <path d="M175 105 L185 105 L180 96 Z" fill="#4A4A4A"/>
  <rect x="177" y="108" width="2" height="2" fill="white"/>
  <rect x="181" y="108" width="2" height="2" fill="white"/>
  
  <path d="M190 120 L200 120 L200 105 L190 105 Z" fill="#4A4A4A"/>
  <path d="M190 105 L200 105 L195 96 Z" fill="#4A4A4A"/>
  <rect x="192" y="108" width="2" height="2" fill="white"/>
  <rect x="196" y="108" width="2" height="2" fill="white"/>
  
  <path d="M205 120 L215 120 L215 105 L205 105 Z" fill="#4A4A4A"/>
  <path d="M205 105 L215 105 L210 96 Z" fill="#4A4A4A"/>
  <rect x="207" y="108" width="2" height="2" fill="white"/>
  <rect x="211" y="108" width="2" height="2" fill="white"/>
  
  <path d="M220 120 L230 120 L230 105 L220 105 Z" fill="#4A4A4A"/>
  <path d="M220 105 L230 105 L225 96 Z" fill="#4A4A4A"/>
  <rect x="222" y="108" width="2" height="2" fill="white"/>
  <rect x="226" y="108" width="2" height="2" fill="white"/>
  
  <!-- Patrón text in cursive -->
  <text x="350" y="110" font-family="'Brush Script MT', cursive" font-size="80" font-weight="700" fill="#32CD32" text-anchor="middle">
    Patrón
  </text>
  
  <!-- REAL ESTATE text -->
  <text x="350" y="140" font-family="Arial, sans-serif" font-size="28" font-weight="600" fill="#4A4A4A" letter-spacing="2" text-anchor="middle">
    REAL ESTATE
  </text>
  
  <!-- RIGHT FOR YOU with lines -->
  <line x1="250" y1="160" x2="300" y2="160" stroke="#666666" stroke-width="1"/>
  <text x="350" y="175" font-family="Arial, sans-serif" font-size="18" font-weight="500" fill="#666666" letter-spacing="1" text-anchor="middle">
    RIGHT FOR YOU
  </text>
  <line x1="400" y1="160" x2="450" y2="160" stroke="#666666" stroke-width="1"/>
</svg>
